PathFileType        4      (X/Y/Z)      C:\Users\cpontonn\Documents\TRAVAIL - COURS\FORMATION DOCTORALE\COURS AUTOMNE\DATA\ESCRIME PROPRE\C3Ds\trial10.trc         
DataRate	CameraRate	NumFrames	NumMarkers	Units	OrigDataRate	OrigDataStartFrame	OrigNumFrames
250.0	250.0	6	45	mm	250.0	1	883
Frame#	Time	LCAR			LFHD			LBHD			RFHD			RBHD			C7			T10			CLAV			STRN			LSHO			LUPA			LRAD			LHUM			LWRB			LWRA			RSHO			RBAC			RUPA			RRAD			RHUM			RWRB			RWRA			RCAR			LFWT			LBWT			RFWT			RBWT			LTHI			LKNE			LKNI			LANE			LANI			LHEE			LTAR			LTARI			LTOE			RTHI			RKNE			RKNI			RANE			RANI			RHEE			RTAR			RTARI			RTOE			
		X1	Y1	Z1	X2	Y2	Z2	X3	Y3	Z3	X4	Y4	Z4	X5	Y5	Z5	X6	Y6	Z6	X7	Y7	Z7	X8	Y8	Z8	X9	Y9	Z9	X10	Y10	Z10	X11	Y11	Z11	X12	Y12	Z12	X13	Y13	Z13	X14	Y14	Z14	X15	Y15	Z15	X16	Y16	Z16	X17	Y17	Z17	X18	Y18	Z18	X19	Y19	Z19	X20	Y20	Z20	X21	Y21	Z21	X22	Y22	Z22	X23	Y23	Z23	X24	Y24	Z24	X25	Y25	Z25	X26	Y26	Z26	X27	Y27	Z27	X28	Y28	Z28	X29	Y29	Z29	X30	Y30	Z30	X31	Y31	Z31	X32	Y32	Z32	X33	Y33	Z33	X34	Y34	Z34	X35	Y35	Z35	X36	Y36	Z36	X37	Y37	Z37	X38	Y38	Z38	X39	Y39	Z39	X40	Y40	Z40	X41	Y41	Z41	X42	Y42	Z42	X43	Y43	Z43	X44	Y44	Z44	X45	Y45	Z45	
1	0.0	1529.67273	1065.66479	48.75571999999997	1110.45801	1546.25317	201.68590000000003	1015.94977	1511.32739	182.51300000000003	1101.33325	1557.55103	417.74408000000005	989.90918	1506.19812	421.19113000000004	938.43201	1368.87646	244.79807000000002	896.13568	1101.65808	170.37816	1052.73022	1265.74072	345.44089	1068.55493	1113.2395	372.77585	1115.53455	1289.58191	129.68130000000002	1172.13538	1164.17004	123.70849	1149.047	974.64496	23.70889999999999	1130.5824	935.40405	103.77754999999999	1417.86267	948.12982	106.23449999999997	1398.58276	1048.26123	90.74882999999998	839.50476	1308.55542	421.12494	803.42133	1252.03442	268.87927	774.19751	1088.35364	458.52573	697.27795	1008.0274	430.63358	733.51135	974.85815	350.42624	915.61426	954.91431	582.9700300000001	935.32111	1042.76477	555.86542	955.21375	1022.90607	635.67566	1120.56494	886.39545	273.49741	924.90912	881.75415	150.80252	930.4765	882.7699	414.12546	865.66663	887.53198	193.5952	1207.71082	749.25665	169.93520999999998	1353.85046	510.53894	200.78962999999993	1335.78528	476.17468	338.04947	1305.53516	104.90297999999999	178.9431899999999	1289.08862	110.62000999999998	274.02617999999995	1225.72412	62.757429999999985	204.9989899999999	1443.93396	40.50490999999999	186.83013999999991	1418.6825	50.82451999999998	291.75698999999986	1497.46118	54.170439999999985	277.8795199999999	862.46222	501.27941999999996	530.8631	771.51312	436.09536999999995	475.5361899999999	899.46747	379.76056	458.73360999999994	681.25952	118.64378999999998	193.09228999999996	764.97815	75.46852999999999	231.08541999999994	733.466	69.90706999999999	135.18831999999995	596.98914	49.32799999999998	305.3588899999999	704.84271	47.71534999999998	342.56389999999993	653.54028	50.62932999999998	397.85729999999995	
2	0.004	1529.60901	1065.52527	48.58778999999997	1110.4939	1546.26733	201.72360000000003	1015.97296	1511.34644	182.47742000000002	1101.33093	1557.59192	417.73215000000005	989.90833	1506.22302	421.19977000000006	938.43011	1368.8833	244.78963000000002	896.12817	1101.68665	170.3555	1052.70886	1265.74377	345.40573	1068.52747	1113.23035	372.73932	1115.55957	1289.56348	129.73050000000003	1172.12341	1164.17676	123.72053	1148.98914	974.66907	23.68073999999999	1130.57239	935.42383	103.81955999999998	1417.92139	948.17432	106.29035999999998	1398.53076	1048.15845	90.69503999999999	839.46582	1308.57837	421.08353	803.44812	1252.0498	268.81531	774.04163	1088.28503	458.47867	697.19141	1008.05511	430.48557	733.46552	974.86963	350.31232	915.64075	954.95477	582.8990500000001	935.18988	1042.77869	555.79224	955.14465	1022.85901	635.63507	1120.57275	886.39056	273.52078	924.88391	881.78333	150.78499	930.45734	882.75385	414.13678	865.66833	887.54437	193.55592	1207.68347	749.26471	169.89246999999997	1353.80664	510.54828	200.78022999999993	1335.74817	476.18677	338.02997	1305.54651	104.90185999999999	178.91953999999993	1289.10999	110.62183999999999	274.0125699999999	1225.71399	62.743479999999984	204.9947699999999	1443.92139	40.50654999999998	186.86838999999992	1418.66077	50.92652999999998	291.66521999999986	1497.44434	54.17306999999999	277.86669999999987	862.44946	501.29256999999996	530.81775	771.34894	436.05147999999997	475.4985699999999	899.58185	379.75943	458.72497999999996	681.29755	118.65317999999999	193.10961999999998	764.95862	75.48568999999999	231.07557999999995	733.45544	69.91845999999998	135.18473999999995	596.94666	49.26204999999998	305.40313999999995	704.73859	47.83524999999998	342.58050999999995	653.6889	50.69606999999998	397.97545999999994	
3	0.008	1529.56653	1065.34607	48.551069999999974	1110.51331	1546.25085	201.69563000000002	1015.99768	1511.35498	182.44807000000003	1101.31323	1557.58545	417.72067000000004	989.90869	1506.229	421.16217000000006	938.32056	1368.91907	244.77147000000002	896.14313	1101.69739	170.33731	1052.69531	1265.73694	345.39105	1068.49097	1113.21033	372.70599	1115.58911	1289.56226	129.71808000000001	1172.11682	1164.15527	123.71806	1148.94543	974.68353	23.64345999999999	1130.48755	935.42194	103.78585999999999	1417.80371	947.94263	106.11373999999998	1398.51501	1048.08008	90.67400999999998	839.40808	1308.60413	421.01965	803.43481	1252.04626	268.76129	774.11285	1088.37329	458.34628	697.16223	1008.0686	430.37961	733.42157	974.8974	350.22168	915.54614	954.63092	583.0050000000001	935.10083	1042.78601	555.74866	955.05005	1022.83789	635.57245	1120.55688	886.4068	273.47714	924.88947	881.82141	150.77313	930.44537	882.76166	414.10349	865.67212	887.58276	193.51938	1207.70007	749.29254	169.87755999999996	1353.8114	510.56201	200.75893999999994	1335.73132	476.17758	338.01096	1305.5332	104.91319999999999	178.9249599999999	1289.08997	110.55414999999999	274.05837999999994	1225.72107	62.744199999999985	205.0033899999999	1443.91699	40.53237999999999	186.86228999999992	1418.67639	50.848419999999976	291.7889399999999	1497.45178	54.170749999999984	277.8544599999999	862.40942	501.28972999999996	530.79187	771.3432	436.03579999999994	475.46917999999994	899.54022	379.79492	458.85186999999996	681.28729	118.60624999999999	193.08265999999998	764.86621	75.36930999999998	231.19814999999994	733.45764	69.90024999999999	135.17818999999994	596.98907	49.32042999999998	305.33410999999995	704.80267	47.683529999999976	342.58941999999996	653.5307	50.63931999999998	397.85518999999994	
4	0.012	1529.52454	1065.23523	48.332589999999975	1110.52173	1546.27856	201.69048000000004	1016.0152	1511.36548	182.44795000000002	1101.28625	1557.61108	417.67133000000007	989.86328	1506.26099	421.13907000000006	938.42255	1368.90491	244.72766000000001	896.14233	1101.72791	170.30373	1052.66516	1265.7356	345.39731	1068.43311	1113.21057	372.70853	1115.599	1289.57019	129.75024000000002	1172.12964	1164.16467	123.66342	1148.87781	974.68665	23.606919999999988	1130.43591	935.42194	103.78310999999998	1417.7959	947.8902	106.01867999999997	1398.48938	1047.98901	90.63640999999998	839.41467	1308.58875	420.97775	803.44678	1252.05957	268.69348	774.07678	1088.38867	458.2681	697.11163	1008.09125	430.27411	733.40326	974.93433	350.0834	915.54669	954.76666	582.9124100000001	935.03156	1042.76099	555.69745	954.97076	1022.80768	635.51428	1120.53564	886.3938	273.48218	924.86908	881.86749	150.71344	930.42065	882.7785	414.09088	865.69714	887.57092	193.47789	1207.68506	749.30756	169.86036999999996	1353.78406	510.58972	200.74647999999993	1335.72266	476.19598	338.00342	1305.4458	104.90539999999999	178.7576899999999	1289.11023	110.61152999999999	274.02657999999997	1225.71301	62.761099999999985	204.9586299999999	1443.90076	40.552129999999984	186.83114999999992	1418.66443	50.84292999999998	291.7804599999999	1497.46094	54.18763999999999	277.87133999999986	862.3985	501.2938199999999	530.76233	771.3877	436.0881999999999	475.4477499999999	899.5127	379.76184	458.82323999999994	681.28357	118.61834999999999	193.11602999999997	764.96698	75.47659999999999	231.08434999999994	733.45306	69.88664999999999	135.16132999999994	596.93713	49.26700999999998	305.40896999999995	704.81818	47.708419999999975	342.5439799999999	653.65552	50.70227999999998	397.9793399999999	
5	0.016	1529.43396	1065.09778	48.21529999999997	1110.53271	1546.27979	201.69347000000002	1016.03271	1511.35352	182.41251000000003	1101.26514	1557.62915	417.66757000000007	989.82745	1506.2771	421.10147000000006	938.44678	1368.92346	244.70026000000001	896.1593	1101.7312	170.28114	1052.64417	1265.68176	345.42792	1068.40515	1113.19983	372.74265	1115.61365	1289.56067	129.75562000000002	1172.10071	1164.17493	123.64948	1148.81116	974.69977	23.54848999999999	1130.35803	935.43738	103.72994999999999	1417.86841	947.91132	106.09886999999998	1398.43677	1047.9032	90.57422999999999	839.35638	1308.60779	420.94275	803.45172	1252.08105	268.64059	774.06165	1088.37842	458.16785	697.05396	1008.09814	430.16464	733.37134	974.95734	350.00085	915.32581	954.90314	582.7117300000001	934.93237	1042.76086	555.62732	954.87738	1022.7782	635.45465	1120.52295	886.40918	273.46005	924.90668	881.87463	150.66692	930.39966	882.82123	414.05728	865.68579	887.56409	193.46184	1207.65295	749.3161	169.83440999999996	1353.74988	510.59201	200.72513999999995	1335.69067	476.18185	338.00021	1305.51611	104.88816999999999	178.88117999999992	1289.12488	110.62345999999998	274.04268999999994	1225.70081	62.726359999999985	204.99645999999993	1443.91248	40.524079999999984	186.86106999999993	1418.67688	50.857239999999976	291.7911699999999	1497.45679	54.20042999999998	277.8724699999999	862.34247	501.32100999999994	530.74744	771.40521	436.12826999999993	475.36571999999995	899.41675	379.78122	458.94692999999995	681.26801	118.59483999999999	193.06904999999998	764.97369	75.47805999999999	231.04264999999995	733.41901	69.88878999999999	135.15029999999993	596.89044	49.28820999999998	305.34966999999995	704.75452	47.63722999999998	342.60857999999996	653.54425	50.68397999999998	397.79250999999994	
6	0.02	1529.39172	1064.87231	48.234629999999974	1110.53821	1546.28894	201.66743000000002	1016.04346	1511.35645	182.36359000000002	1101.276	1557.65479	417.6585400000001	989.82538	1506.28003	421.10269000000005	938.34283	1368.93591	244.69542000000004	896.15118	1101.76013	170.27734	1052.62744	1265.68115	345.38306	1068.38489	1113.18286	372.70972	1115.65564	1289.5387	129.78482000000002	1172.12756	1164.14124	123.66161	1148.77246	974.67889	23.49954999999999	1130.23499	935.40967	103.66031999999998	1417.76172	947.71545	105.90491999999998	1398.38367	1047.81677	90.51550999999999	839.30847	1308.63086	420.90247	803.43024	1252.08752	268.5798	774.00922	1088.37781	458.10214	696.99463	1008.125	430.0434	733.31671	974.97168	349.88577	915.26508	954.89264	582.6381200000001	934.8847	1042.74487	555.55615	954.79364	1022.73932	635.41516	1120.51746	886.41492	273.43701	924.90997	881.88177	150.64781	930.39594	882.81616	414.02994	865.69116	887.56775	193.43092	1207.62976	749.28021	169.84807999999998	1353.72131	510.60236	200.71059999999994	1335.66504	476.19632	337.96762	1305.50391	104.86765999999999	178.8901199999999	1289.12329	110.59535999999999	273.98479999999995	1225.72168	62.709279999999985	205.0009499999999	1443.922	40.52765999999998	186.88361999999992	1418.64734	50.89210999999998	291.7842399999999	1497.4502	54.21492999999999	277.8642299999999	862.29272	501.32985999999994	530.66724	771.40149	436.11895999999996	475.3107299999999	899.43005	379.75125	458.94372999999996	681.25604	118.60512999999999	193.08654999999996	764.94586	75.45709999999998	231.02758999999995	733.40698	69.87224999999998	135.16462999999993	596.99896	49.30154999999998	305.32775999999996	704.79706	47.67548999999998	342.58523999999994	653.67462	50.704639999999976	397.97155999999995	
